<svg width="189" height="29" viewBox="0 0 189 29" fill="none" xmlns="http://www.w3.org/2000/svg">
<path d="M30.375 21.4586H24.5417L23.4377 25.6384H17.5183L23.9636 5.50073H31.073L37.5459 25.6384H31.4512L30.378 21.4586H30.375ZM29.3602 17.4323L28.3147 13.4367L27.5029 10.1408H27.4445L26.6603 13.406L25.5872 17.4323H29.3602Z" fill="#F9CA00"/>
<path d="M47.383 25.9453C41.4328 25.9453 37.7766 22.1307 37.7766 15.5726C37.7766 9.01452 41.4328 5.1969 47.3522 5.1969C51.4728 5.1969 54.926 6.96761 55.827 11.0246L50.6886 13.1912C50.252 10.6287 49.2956 9.95665 47.5244 9.95665C45.1751 9.95665 43.8682 11.7887 43.8682 15.5695C43.8682 19.3503 45.0583 21.1824 47.466 21.1824C49.4402 21.1824 50.3688 20.2372 50.7163 18.1627L55.9992 19.6572C54.8953 24.1439 51.6173 25.9422 47.3799 25.9422L47.383 25.9453Z" fill="#F9CA00"/>
<path d="M66.0728 17.5827L64.1294 20.2066V25.6384H58.21V5.50073H64.1294V13.7099L69.9904 5.50073H76.4049L70.2825 13.5871L76.8692 25.6384H70.1656L66.0728 17.5827Z" fill="#F9CA00"/>
<path d="M124.311 15.232C124.311 21.2408 119.661 26.1294 113.945 26.1294C108.228 26.1294 103.579 21.2408 103.579 15.232C103.579 9.22324 108.228 4.33459 113.945 4.33459C117.115 4.33459 120.049 5.83832 122.023 8.43148C122.881 9.52399 122.699 11.1351 121.66 12.0097C120.621 12.8844 119.089 12.7186 118.231 11.6261C117.192 10.2329 115.633 9.44113 113.945 9.44113C110.907 9.44113 108.437 12.0374 108.437 15.232C108.437 18.4267 110.907 21.0229 113.945 21.0229C116.1 21.0229 117.97 19.7125 118.88 17.8006H113.969C112.619 17.8006 111.528 16.6529 111.528 15.232C111.528 13.8111 112.619 12.691 113.969 12.691H121.866C123.216 12.691 124.308 13.8111 124.308 15.232H124.311Z" fill="#00B4D6"/>
<path d="M137.343 21.4586H131.509L130.405 25.6384H124.486L130.928 5.50073H138.038L144.511 25.6384H138.416L137.343 21.4586ZM136.328 17.4323L135.282 13.4367L134.471 10.1408H134.412L133.628 13.406L132.555 17.4323H136.328Z" fill="#00B4D6"/>
<path d="M169.67 25.6384H164.446V17.5827L164.563 11.0829H164.504L160.298 25.6384H155.538L151.386 11.0829H151.3L151.417 17.5827V25.6384H146.193V5.50073H154.551L157.134 15.0509L158.09 19.0465H158.148L159.105 15.0509L161.688 5.50073H169.667V25.6384H169.67Z" fill="#00B4D6"/>
<path d="M189 20.9707V25.6384H173.185V5.50073H188.625V10.1684H179.104V13.4337H186.709V17.7668H179.104V20.9707H189Z" fill="#00B4D6"/>
<path d="M100.123 28.4617L80.664 28.4985L80.3811 22.1859C87.6935 17.954 92.3891 13.2741 92.3891 10.2666C92.3891 8.55726 91.1529 7.3328 89.4217 7.3328C87.5859 7.3328 86.2083 8.85494 85.9623 11.0829L80.1689 9.9321C80.4149 4.28852 84.4063 0.501587 90.092 0.501587C95.461 0.501587 99.0988 4.06757 99.0988 9.37664C99.0988 15.1706 94.5785 17.9172 91.8233 21.7808H99.3817L100.123 28.4648V28.4617Z" fill="#E63F8D"/>
<path d="M10.3013 21.8545V17.7361H2.40774V13.9215H10.3013V9.83385H0.378228V5.77686H15.2952V25.9114H0V21.8545H10.3013Z" fill="#F9CA00"/>
</svg>
