<svg width="65" height="65" viewBox="0 0 52 52" fill="none" xmlns="http://www.w3.org/2000/svg">
<path d="M6 11C2.875 15.175 1 20.375 1 26C1 39.8 12.2 51 26 51C39.8 51 51 39.8 51 26C51 12.2 39.8 1 26 1C22.425 1 19 1.75 15.925 3.125M33.7322 17.7134C31.4073 15.9577 28.7501 15 26 15C21.3102 15 16.9392 17.7666 13.8968 22.555C12.7011 24.4305 12.7011 27.5828 13.8968 29.4583C14.9463 31.1076 16.1686 32.5308 17.4972 33.6747M21.2437 36.0157C22.7583 36.6542 24.3659 37 26 37C30.6898 37 35.0608 34.2334 38.1032 29.445C39.2989 27.5695 39.2989 24.4172 38.1032 22.5417C37.6648 21.8501 37.1865 21.1983 36.6949 20.5865M30.563 26.91C30.3869 27.8168 29.9438 28.6504 29.2906 29.3036C28.6374 29.9568 27.8038 30.3999 26.897 30.576M22.711 29.289L13 39M39 13L29.289 22.711M29 22.3726L22.3726 29C21.4937 28.1211 21 26.9292 21 25.6863C21 25.0709 21.1212 24.4615 21.3567 23.8929C21.5922 23.3244 21.9374 22.8077 22.3726 22.3726C22.8077 21.9374 23.3244 21.5922 23.8929 21.3567C24.4615 21.1212 25.0709 21 25.6863 21C26.9292 21 28.1211 21.4937 29 22.3726Z" stroke="#F9CA00" strokeWidth="1.5" strokeLinecap="round" strokeLinejoin="round"/>
</svg>
