<svg ariaLabel="edit button" width="65" height="65" viewBox="0 0 52 52" fill="none" xmlns="http://www.w3.org/2000/svg">
<path d="M6 11C2.875 15.175 1 20.375 1 26C1 39.8 12.2 51 26 51C39.8 51 51 39.8 51 26C51 12.2 39.8 1 26 1C22.425 1 19 1.75 15.925 3.125M35.325 24.4997L36.95 22.8747C37.05 22.7747 37.15 22.6747 37.25 22.5497C39.275 20.3997 40.075 17.8747 36.95 14.7497C33.65 11.4497 31.05 12.5247 28.825 14.7497L15.85 27.7247C15.35 28.2247 14.875 29.1997 14.775 29.8997L14.075 34.8497C13.825 36.6497 15.075 37.8997 16.875 37.6497L21.825 36.9497C22.525 36.8497 23.5 36.3747 24 35.8747L28.85 31.0247M26.9725 16.6047C27.5153 18.5426 28.5479 20.3082 29.971 21.7312C31.394 23.1543 33.1596 24.1869 35.0975 24.7297" stroke="#00B4D6" strokeWidth="1.5" strokeLinecap="round" strokeLinejoin="round"/>
</svg>
