<svg width="20" height="21" viewBox="0 0 20 21" fill="none" xmlns="http://www.w3.org/2000/svg" alt="rocket">
<path fillRule="evenodd" clipRule="evenodd" d="M6.17053 12.9491C6.28055 13.2763 6.10451 13.6307 5.77734 13.7407C4.71792 14.097 4.15489 14.9863 3.85373 15.8907C3.73414 16.2498 3.66189 16.5955 3.61848 16.8814C3.90434 16.838 4.25006 16.7657 4.60917 16.6461C5.51355 16.345 6.4029 15.7819 6.75916 14.7225C6.86918 14.3954 7.2236 14.2193 7.55078 14.3293C7.87795 14.4394 8.05399 14.7938 7.94396 15.121C7.4096 16.71 6.08801 17.4712 5.00411 17.8321C4.45655 18.0144 3.94395 18.1045 3.5698 18.1493C3.38182 18.1719 3.22641 18.1833 3.116 18.1891C3.06074 18.1921 3.01658 18.1936 2.98505 18.1943C2.96928 18.1947 2.95666 18.1949 2.94737 18.1951L2.93596 18.1952L2.93217 18.1952L2.93077 18.1952L2.93019 18.1952C2.92993 18.1952 2.92969 18.1952 2.92969 17.5702C2.30469 17.5702 2.30469 17.5699 2.30469 17.5697L2.30469 17.5691L2.30469 17.5677L2.30471 17.5639L2.30481 17.5525C2.30493 17.5432 2.30514 17.5306 2.30553 17.5148C2.30631 17.4833 2.30782 17.4391 2.31072 17.3839C2.31653 17.2735 2.32797 17.118 2.35052 16.9301C2.3954 16.5559 2.48542 16.0433 2.66776 15.4958C3.0287 14.4119 3.78989 13.0903 5.37891 12.5559C5.70608 12.4459 6.0605 12.6219 6.17053 12.9491ZM2.92969 17.5702H2.30469C2.30469 17.9154 2.58451 18.1952 2.92969 18.1952V17.5702Z" fill="white"/>
<path fillRule="evenodd" clipRule="evenodd" d="M16.5462 3.954C15.8208 3.84937 14.0351 3.80996 12.2076 5.63747L7.34482 10.5002L10 13.1554L14.8627 8.29265C16.6903 6.46514 16.6508 4.67945 16.5462 3.954ZM16.7275 2.71721C15.7298 2.57276 13.5058 2.57151 11.3237 4.75359L6.019 10.0583C5.90179 10.1755 5.83594 10.3345 5.83594 10.5002C5.83594 10.666 5.90179 10.8249 6.019 10.9422L9.55806 14.4812C9.80214 14.7253 10.1979 14.7253 10.4419 14.4812L15.7466 9.17653C17.9287 6.99445 17.9275 4.77046 17.783 3.77276C17.7465 3.50574 17.6235 3.25797 17.4329 3.06734C17.2422 2.87671 16.9945 2.75376 16.7275 2.71721Z" fill="white"/>
<path fillRule="evenodd" clipRule="evenodd" d="M14.4219 8.99243C14.7671 8.99243 15.0469 9.27225 15.0469 9.61743V14.6643L15.0468 14.6732C15.0421 15.0015 14.9085 15.3147 14.6749 15.5452L12.1526 18.0753C11.9925 18.2352 11.792 18.3486 11.5724 18.4035C11.3529 18.4584 11.1225 18.4527 10.906 18.3869C10.6895 18.3212 10.4948 18.1978 10.3429 18.0301C10.1911 17.8625 10.0875 17.6569 10.0433 17.4351C10.0433 17.435 10.0434 17.4353 10.0433 17.4351L9.38719 14.1622C9.31934 13.8237 9.5387 13.4944 9.87714 13.4265C10.2156 13.3587 10.545 13.578 10.6128 13.9165L11.2692 17.1909L13.7969 14.6554V9.61743C13.7969 9.27225 14.0767 8.99243 14.4219 8.99243Z" fill="white"/>
<path fillRule="evenodd" clipRule="evenodd" d="M5.82698 5.45307L5.83588 5.453H10.8828C11.2279 5.453 11.5078 5.73282 11.5078 6.078C11.5078 6.42318 11.2279 6.703 10.8828 6.703H5.84472L5.83967 6.70816L5.83964 6.70813L3.30933 9.23063L3.3103 9.23082L6.58373 9.88707C6.92218 9.95492 7.14154 10.2843 7.07369 10.6227C7.00584 10.9612 6.67647 11.1805 6.33803 11.1127L3.06556 10.4566C3.06537 10.4566 3.06518 10.4566 3.065 10.4565C2.84325 10.4123 2.63764 10.3088 2.47006 10.157C2.30235 10.005 2.17903 9.81042 2.11327 9.59387C2.04751 9.37733 2.04176 9.147 2.09665 8.92745C2.15154 8.7079 2.265 8.50737 2.42493 8.34725L2.42587 8.34631L2.42587 8.34632L4.95498 5.82502C5.18549 5.59139 5.49869 5.45774 5.82698 5.45307Z" fill="white"/>
</svg>
