<svg width="21" height="20" viewBox="0 0 21 20" fill="none" xmlns="http://www.w3.org/2000/svg">
<path fill-rule="evenodd" clip-rule="evenodd" d="M10.0915 3.125C7.67525 3.125 5.71649 5.08375 5.71649 7.5C5.71649 9.91625 7.67525 11.875 10.0915 11.875C12.5077 11.875 14.4665 9.91625 14.4665 7.5C14.4665 5.08375 12.5077 3.125 10.0915 3.125ZM4.46649 7.5C4.46649 4.3934 6.98489 1.875 10.0915 1.875C13.1981 1.875 15.7165 4.3934 15.7165 7.5C15.7165 10.6066 13.1981 13.125 10.0915 13.125C6.98489 13.125 4.46649 10.6066 4.46649 7.5Z" fill="#BDBDBD"/>
<path fill-rule="evenodd" clip-rule="evenodd" d="M10.0915 13.1244C8.66511 13.1244 7.26388 13.4999 6.02865 14.2131C4.79342 14.9264 3.76771 15.9522 3.05464 17.1875C2.88208 17.4865 2.49985 17.5889 2.2009 17.4164C1.90195 17.2438 1.79949 16.8616 1.97205 16.5626C2.79482 15.1373 3.97833 13.9536 5.4036 13.1306C6.82887 12.3077 8.44567 11.8744 10.0915 11.8744C11.7373 11.8744 13.3541 12.3077 14.7794 13.1306C16.2046 13.9536 17.3881 15.1373 18.2109 16.5626C18.3835 16.8616 18.281 17.2438 17.9821 17.4164C17.6831 17.5889 17.3009 17.4865 17.1283 17.1875C16.4152 15.9522 15.3895 14.9264 14.1543 14.2131C12.9191 13.4999 11.5178 13.1244 10.0915 13.1244Z" fill="#BDBDBD"/>
</svg>
