<svg width="52" height="52" viewBox="0 0 52 52" fill="none" xmlns="http://www.w3.org/2000/svg">
<path d="M6 11C2.875 15.175 1 20.375 1 26C1 39.8 12.2 51 26 51C39.8 51 51 39.8 51 26C51 12.2 39.8 1 26 1C22.425 1 19 1.75 15.925 3.125M26 36.6874C30.4125 36.6874 34.525 34.0873 37.3875 29.5873C38.5125 27.8248 38.5125 24.8623 37.3875 23.0998C34.525 18.5998 30.4125 15.9998 26 15.9998C21.5875 15.9998 17.475 18.5998 14.6125 23.0998C13.4875 24.8623 13.4875 27.8248 14.6125 29.5873C17.475 34.0873 21.5875 36.6874 26 36.6874ZM30.475 26.3248C30.475 28.7998 28.475 30.7998 26 30.7998C23.525 30.7998 21.525 28.7998 21.525 26.3248C21.525 23.8498 23.525 21.8498 26 21.8498C28.475 21.8498 30.475 23.8498 30.475 26.3248Z" stroke="#F9CA00" stroke-width="1.5" stroke-linecap="round" stroke-linejoin="round"/>
</svg>
